<?xml version="1.0" encoding="utf-8"?>
<!-- Generator: Adobe Illustrator 19.0.0, SVG Export Plug-In . SVG Version: 6.00 Build 0)  -->
<svg version="1.1" id="Layer_1" xmlns="http://www.w3.org/2000/svg" xmlns:xlink="http://www.w3.org/1999/xlink" x="0px" y="0px"
	 viewBox="0 0 240 35" style="enable-background:new 0 0 240 35;" xml:space="preserve">
<style type="text/css">
	.st0{fill:#f4f4f4;}
	.st1{font-family:'Arial';}
	.st2{font-size:11px;}
</style>
<path id="XMLID_111_" class="st0" d="M27,13.3c-1.2,4.3-5,7.3-9.5,7.4C13,20.6,9.2,17.6,8,13.3l0,0c0,0,2.2,2.3,0,0
	c0.6,0.7,1.5,1,2.4,1s1.8-0.3,2.4-1c0.6,0.7,1.5,1,2.4,1s1.8-0.3,2.4-1c0.6,0.7,1.5,1,2.4,1s1.8-0.3,2.4-1c0.6,0.7,1.5,1,2.4,1
	s1.8-0.3,2.4-1 M27.1,11.1c0-5.3-4.3-9.6-9.6-9.6s-9.6,4.3-9.6,9.6h8.6c-1.1-0.4-1.8-1.4-1.8-2.6c0-1.5,1.3-2.8,2.8-2.8
	s2.8,1.3,2.8,2.8c0,1.1-0.7,2.2-1.7,2.6H27.1 M18.1,32.4c0.2-8.2,6.6-15.3,14.8-15.6C32.9,25.1,26.4,31.9,18.1,32.4 M16.9,32.4
	C16.7,24.2,10.3,17.1,2,16.8C2.1,25.1,8.6,31.9,16.9,32.4"/>
<polyline id="XMLID_110_" class="st0" points="55.2,2.2 35.7,2.2 35.7,31.7 55.2,31.7 55.2,27.1 41.8,27.1 41.8,19.2 55.2,19.2 
	55.2,14.5 41.8,14.5 41.8,6.7 55.2,6.7 55.2,2.2 "/>
<path id="XMLID_109_" class="st0" d="M62.5,14.5h6c2,0,3.4-1.9,3.4-3.9c0.1-2-1.4-3.6-3.3-3.8H63v24.9h-6.3V2.2h13.8
	c4.5,0,7.8,3.9,7.8,8.4s-3.3,8.6-7.8,8.6h-8V14.5"/>
<polyline id="XMLID_108_" class="st0" points="72,31.7 78.6,31.7 81.5,23.9 93.5,23.9 91.7,19 83.2,19 87.4,7.8 96.1,31.7 
	102.6,31.7 90.9,2.2 83.4,2.2 72,31.7 "/>
<text id="XMLID_1_" transform="matrix(1 0 0 1 106.7305 9.6342)"><tspan x="0" y="0" class="st0 st1 st2">United States</tspan><tspan x="0" y="11" class="st0 st1 st2">Environmental Protection</tspan><tspan x="0" y="22" class="st0 st1 st2">Agency</tspan></text>
</svg>
